<svg width="32" height="18" viewBox="0 0 32 18" fill="none" xmlns="http://www.w3.org/2000/svg" xmlns:xlink="http://www.w3.org/1999/xlink">
<path d="M16,16.977C16.615,16.959 17.178,16.73 17.635,16.238L30.994,2.562C31.381,2.176 31.592,1.684 31.592,1.104C31.592,-0.057 30.678,-0.988 29.518,-0.988C28.955,-0.988 28.41,-0.76 28.006,-0.355L16.018,11.967L3.994,-0.355C3.59,-0.742 3.063,-0.988 2.482,-0.988C1.322,-0.988 0.408,-0.057 0.408,1.104C0.408,1.684 0.619,2.176 1.006,2.562L14.383,16.238C14.857,16.73 15.385,16.977 16,16.977Z" fill="#FFFFFF"/>
</svg>
